<?xml version="1.0" encoding="UTF-8" standalone="no"?>
<!-- Created with Inkscape (http://www.inkscape.org/) -->

<svg
   width="512"
   height="512"
   viewBox="0 0 135.46667 135.46666"
   version="1.1"
   id="svg1"
   inkscape:version="1.3 (0e150ed6c4, 2023-07-21)"
   sodipodi:docname="GMB-Logo.svg"
   inkscape:export-filename="GMB-Logox512.jpg"
   inkscape:export-xdpi="96"
   inkscape:export-ydpi="96"
   xmlns:inkscape="http://www.inkscape.org/namespaces/inkscape"
   xmlns:sodipodi="http://sodipodi.sourceforge.net/DTD/sodipodi-0.dtd"
   xmlns="http://www.w3.org/2000/svg"
   xmlns:svg="http://www.w3.org/2000/svg">
  <sodipodi:namedview
     id="namedview1"
     pagecolor="#505050"
     bordercolor="#ffffff"
     borderopacity="1"
     inkscape:showpageshadow="0"
     inkscape:pageopacity="0"
     inkscape:pagecheckerboard="1"
     inkscape:deskcolor="#d1d1d1"
     inkscape:document-units="mm"
     inkscape:zoom="1.3285757"
     inkscape:cx="265.69807"
     inkscape:cy="299.94527"
     inkscape:window-width="1920"
     inkscape:window-height="1009"
     inkscape:window-x="-8"
     inkscape:window-y="-8"
     inkscape:window-maximized="1"
     inkscape:current-layer="layer1" />
  <defs
     id="defs1" />
  <g
     inkscape:label="Ebene 1"
     inkscape:groupmode="layer"
     id="layer1"
     transform="translate(-53.974976,-102.65834)">
    <g
       id="g44725"
       transform="matrix(0.01154242,0,0,0.01154242,264.34557,105.07417)"
       inkscape:label="Logo"
       style="clip-rule:evenodd;fill-rule:evenodd;stroke-width:0.250441;image-rendering:optimizeQuality;shape-rendering:geometricPrecision;text-rendering:geometricPrecision">
      <path
         d="m -9419.2555,7502.5307 h 1677.8446 c 50.3767,-4.6632 765.5223,-86.1324 765.5223,-927.0872 0,-317.4696 -132.2228,-559.6286 -393.0238,-719.7203 -185.8672,-114.0901 -375.2013,-144.8501 -399.9136,-148.4722 h -1650.4295 v -96.7107 h 1653.0105 1.3847 20.4916 c 69.5729,-15.297 768.4801,-187.6284 768.4801,-927.0873 0,-815.135 -759.8511,-866.4534 -792.2174,-868.2368 l -1651.1495,0.067 -48.3609,-96.7107 h 1702.1247 c 308.2093,16.1277 886.325,238.4594 886.325,964.881 0,615.4109 -450.2018,876.7769 -695.5399,973.5209 258.1871,86.0106 695.5399,320.0836 695.5399,918.4696 0,755.0992 -560.1048,999.7837 -856.2628,1023.6429 -1.2852,0.1 -2.581,0.1551 -3.8658,0.1551 h -1728.3211 z"
         fill="#6ba342"
         id="path43420"
         style="display:inline;stroke-width:2.77406" />
      <path
         d="m -9565.7156,7502.5307 h 1677.8446 c 50.3767,-4.6632 765.5223,-86.1324 765.5223,-927.0872 0,-317.4696 -132.2228,-559.6286 -393.0238,-719.7203 -185.8671,-114.0901 -375.2013,-144.8501 -399.9135,-148.4722 h -1650.4296 v -96.7107 h 1653.0105 1.3844 20.4919 c 69.5729,-15.297 768.4801,-187.6284 768.4801,-927.0873 0,-815.135 -759.8511,-866.4534 -792.2174,-868.2368 l -1651.1495,0.067 -48.361,-96.7107 h 1702.1248 c 308.2093,16.1277 886.3137,238.4594 886.3137,964.881 0,615.4109 -450.1904,876.7769 -695.5286,973.5209 258.1758,86.0106 695.5286,320.0836 695.5286,918.4696 0,755.0992 -560.0938,999.7837 -856.2515,1023.6429 -1.2852,0.1 -2.581,0.1551 -3.8658,0.1551 h -1728.3212 z"
         fill="#035eab"
         id="path43422"
         style="display:inline;stroke-width:2.77406" />
      <path
         d="m -9737.5129,7502.5307 h 1677.8444 c 50.3768,-4.6632 765.5223,-86.1324 765.5223,-927.0872 0,-317.4696 -132.2224,-559.6286 -393.0238,-719.7203 -185.8671,-114.0901 -375.2013,-144.8501 -399.9132,-148.4722 h -1650.4297 v -96.7107 h 1653.0104 1.3846 20.492 c 69.5729,-15.297 768.4797,-187.6284 768.4797,-927.0873 0,-815.135 -759.8511,-866.4534 -792.217,-868.2368 l -1651.1497,0.067 -48.361,-96.7107 h 1702.1246 c 308.2094,16.1277 886.3251,238.4594 886.3251,964.881 0,615.4109 -450.2018,876.7769 -695.5397,973.5209 258.1868,86.0106 695.5397,320.0836 695.5397,918.4696 0,755.0992 -560.1049,999.7837 -856.2629,1023.6429 -1.2848,0.1 -2.5809,0.1551 -3.8658,0.1551 h -1728.321 z"
         fill="#de6a47"
         id="path43424"
         style="display:inline;stroke-width:2.77406" />
      <path
         d="m -9944.0714,7502.5307 h 1677.8444 c 50.3768,-4.6632 765.5223,-86.1324 765.5223,-927.0872 0,-317.4696 -132.2224,-559.6286 -393.0237,-719.7203 -185.8672,-114.0901 -375.2014,-144.8501 -399.9133,-148.4722 h -1650.4297 v -96.7107 h 1653.0104 1.3847 20.4919 c 69.5729,-15.297 768.4797,-187.6284 768.4797,-927.0873 0,-815.135 -759.8511,-866.4534 -792.217,-868.2368 l -1651.1497,0.067 -48.3609,-96.7107 h 1702.1245 c 308.2094,16.1277 886.3251,238.4594 886.3251,964.881 0,615.4109 -450.2018,876.7769 -695.5397,973.5209 258.1868,86.0106 695.5397,320.0836 695.5397,918.4696 0,755.0992 -560.1049,999.7837 -856.2628,1023.6429 -1.2849,0.1 -2.581,0.1551 -3.8658,0.1551 h -1728.321 z"
         fill="#18401c"
         id="path43426"
         style="display:inline;stroke-width:2.77406" />
      <path
         d="m -9987.7358,7599.2437 c -26.1082,0 -47.2972,-21.1787 -47.2972,-47.2975 V 3942.7446 l -1638.334,3628.6633 c -7.665,16.9363 -24.513,27.8358 -43.111,27.8358 -18.598,0 -35.445,-10.8995 -43.11,-27.8358 l -1638.367,-3628.6633 v 3609.2016 c 0,26.1188 -21.168,47.2975 -47.298,47.2975 -26.119,0 -47.297,-21.1787 -47.297,-47.2975 V 3765.8939 c 0,-22.2864 15.551,-41.5598 37.339,-46.2342 21.877,-4.7298 43.886,6.4577 53.069,26.7724 l 1685.664,3690.5821 1685.632,-3690.5821 c 9.182,-20.3368 31.4686,-31.5354 53.0571,-26.7724 21.7989,4.6744 37.3506,23.9478 37.3506,46.2342 v 3786.0523 c 0,26.1188 -21.1897,47.2975 -47.2975,47.2975"
         fill="#6ba342"
         id="path43428"
         style="display:inline;stroke-width:2.77406" />
      <path
         d="m -15515.905,5647.8229 c -26.13,0 -47.298,21.1897 -47.298,47.2975 0,26.1078 21.168,47.2976 47.298,47.2976 h 1605.458 c -22.043,1008.0248 -748.952,1762.2379 -1708.128,1762.2379 -973.078,0 -1706.866,-777.9284 -1706.866,-1809.5355 0,-997.7788 811.746,-1809.5243 1809.536,-1809.5243 466.65,0 974.096,292.4694 1234.011,711.2354 13.747,22.1534 42.945,28.9878 65.12,15.2416 22.209,-13.7795 29.021,-42.9444 15.242,-65.12 -276.253,-445.0954 -816.752,-755.9521 -1314.373,-755.9521 -1049.929,0 -1904.131,854.1804 -1904.131,1904.1194 0,1085.5285 774.461,1904.1195 1801.461,1904.1195 1020.896,0 1792.1,-807.4367 1802.734,-1881.7556 l 0.509,-69.6614 z"
         fill="#6ba342"
         id="path43430"
         style="display:inline;stroke-width:2.77406" />
      <path
         d="m -10126.036,7599.2437 c -26.108,0 -47.298,-21.1787 -47.298,-47.2975 V 3942.7446 l -1638.334,3628.6633 c -7.676,16.9363 -24.512,27.8358 -43.11,27.8358 -18.598,0 -35.446,-10.8995 -43.111,-27.8358 l -1638.367,-3628.6633 v 3609.2016 c 0,26.1188 -21.167,47.2975 -47.297,47.2975 -26.13,0 -47.298,-21.1787 -47.298,-47.2975 V 3765.8939 c 0,-22.2864 15.552,-41.5598 37.34,-46.2342 21.876,-4.7298 43.886,6.4577 53.068,26.7724 l 1685.665,3690.5821 1685.631,-3690.5821 c 9.183,-20.3368 31.469,-31.5354 53.058,-26.7724 21.799,4.6744 37.35,23.9478 37.35,46.2342 v 3786.0523 c 0,26.1188 -21.189,47.2975 -47.297,47.2975"
         fill="#035eab"
         id="path43432"
         style="display:inline;stroke-width:2.77406" />
      <path
         d="m -15654.911,5647.8229 c -26.13,0 -47.298,21.1897 -47.298,47.2975 0,26.1078 21.168,47.2976 47.298,47.2976 h 1605.458 c -22.043,1008.0248 -748.952,1762.2379 -1708.129,1762.2379 -973.077,0 -1706.865,-777.9284 -1706.865,-1809.5355 0,-997.7788 811.746,-1809.5243 1809.536,-1809.5243 466.65,0 974.096,292.4694 1234.011,711.2354 13.747,22.1534 42.945,28.9878 65.12,15.2416 22.209,-13.7795 29.021,-42.9444 15.242,-65.12 -276.253,-445.0954 -816.752,-755.9521 -1314.373,-755.9521 -1049.929,0 -1904.131,854.1804 -1904.131,1904.1194 0,1085.5285 774.461,1904.1195 1801.46,1904.1195 1020.896,0 1792.101,-807.4367 1802.735,-1881.7556 l 0.509,-69.6614 z"
         fill="#035eab"
         id="path43434"
         style="display:inline;stroke-width:2.77406" />
      <path
         d="m -10265.839,7599.2437 c -26.108,0 -47.297,-21.1787 -47.297,-47.2975 V 3942.7446 l -1638.334,3628.6633 c -7.665,16.9363 -24.513,27.8358 -43.111,27.8358 -18.597,0 -35.445,-10.8995 -43.11,-27.8358 l -1638.367,-3628.6633 v 3609.2016 c 0,26.1188 -21.168,47.2975 -47.298,47.2975 -26.119,0 -47.297,-21.1787 -47.297,-47.2975 V 3765.8939 c 0,-22.2864 15.551,-41.5598 37.339,-46.2342 21.877,-4.7298 43.886,6.4577 53.069,26.7724 l 1685.664,3690.5821 1685.632,-3690.5821 c 9.182,-20.3368 31.469,-31.5354 53.057,-26.7724 21.799,4.6744 37.351,23.9478 37.351,46.2342 v 3786.0523 c 0,26.1188 -21.19,47.2975 -47.298,47.2975"
         fill="#de6a47"
         id="path43436"
         style="display:inline;stroke-width:2.77406" />
      <path
         d="m -15794.158,5647.8229 c -26.13,0 -47.297,21.1897 -47.297,47.2975 0,26.1078 21.167,47.2976 47.297,47.2976 h 1605.458 c -22.042,1008.0248 -748.951,1762.2379 -1708.128,1762.2379 -973.078,0 -1706.865,-777.9284 -1706.865,-1809.5355 0,-997.7788 811.745,-1809.5243 1809.535,-1809.5243 466.651,0 974.097,292.4694 1234.012,711.2354 13.746,22.1534 42.944,28.9878 65.12,15.2416 22.209,-13.7795 29.021,-42.9444 15.242,-65.12 -276.254,-445.0954 -816.753,-755.9521 -1314.374,-755.9521 -1049.928,0 -1904.13,854.1804 -1904.13,1904.1194 0,1085.5285 774.461,1904.1195 1801.46,1904.1195 1020.896,0 1792.101,-807.4367 1802.735,-1881.7556 l 0.509,-69.6614 z"
         fill="#de6a47"
         id="path43438"
         style="display:inline;stroke-width:2.77406" />
      <path
         d="m -10405.115,7599.2437 c -26.108,0 -47.298,-21.1787 -47.298,-47.2975 V 3942.7446 l -1638.334,3628.6633 c -7.665,16.9363 -24.512,27.8358 -43.11,27.8358 -18.598,0 -35.446,-10.8995 -43.111,-27.8358 l -1638.367,-3628.6633 v 3609.2016 c 0,26.1188 -21.167,47.2975 -47.297,47.2975 -26.119,0 -47.298,-21.1787 -47.298,-47.2975 V 3765.8939 c 0,-22.2864 15.552,-41.5598 37.34,-46.2342 21.876,-4.7298 43.886,6.4577 53.068,26.7724 l 1685.665,3690.5821 1685.631,-3690.5821 c 9.183,-20.3368 31.469,-31.5354 53.058,-26.7724 21.799,4.6744 37.35,23.9478 37.35,46.2342 v 3786.0523 c 0,26.1188 -21.189,47.2975 -47.297,47.2975"
         fill="#18401c"
         id="path43440"
         style="display:inline;stroke-width:2.77406" />
      <path
         d="m -15932.007,5647.8229 c -26.13,0 -47.298,21.1897 -47.298,47.2975 0,26.1078 21.168,47.2976 47.298,47.2976 h 1605.458 c -22.043,1008.0248 -748.952,1762.2379 -1708.129,1762.2379 -973.077,0 -1706.865,-777.9284 -1706.865,-1809.5355 0,-997.7788 811.746,-1809.5243 1809.536,-1809.5243 466.65,0 974.096,292.4694 1234.011,711.2354 13.747,22.1534 42.945,28.9878 65.12,15.2416 22.209,-13.7795 29.021,-42.9444 15.242,-65.12 -276.253,-445.0954 -816.752,-755.9521 -1314.373,-755.9521 -1049.929,0 -1904.131,854.1804 -1904.131,1904.1194 0,1085.5285 774.461,1904.1195 1801.46,1904.1195 1020.897,0 1792.101,-807.4367 1802.735,-1881.7556 l 0.509,-69.6614 z"
         fill="#18401c"
         id="path43442"
         style="display:inline;stroke-width:2.77406" />
    </g>
  </g>
</svg>
