<?xml version="1.0" encoding="UTF-8" standalone="no"?>
<svg
   stroke="#004e81"
   fill="#004e81"
   stroke-width="0"
   viewBox="-24 -24 0 0"
   height="19.99984"
   width="20"
   version="1.1"
   id="svg2"
   sodipodi:docname="icon.svg"
   inkscape:version="1.3 (0e150ed6c4, 2023-07-21)"
   inkscape:export-filename="icon192x192.png"
   inkscape:export-xdpi="921.59998"
   inkscape:export-ydpi="921.59998"
   xmlns:inkscape="http://www.inkscape.org/namespaces/inkscape"
   xmlns:sodipodi="http://sodipodi.sourceforge.net/DTD/sodipodi-0.dtd"
   xmlns="http://www.w3.org/2000/svg"
   xmlns:svg="http://www.w3.org/2000/svg">
  <defs
     id="defs2" />
  <sodipodi:namedview
     id="namedview2"
     pagecolor="#505050"
     bordercolor="#ffffff"
     borderopacity="1"
     inkscape:showpageshadow="0"
     inkscape:pageopacity="0"
     inkscape:pagecheckerboard="1"
     inkscape:deskcolor="#d1d1d1"
     inkscape:zoom="13.998784"
     inkscape:cx="13.358303"
     inkscape:cy="7.2506298"
     inkscape:window-width="1920"
     inkscape:window-height="1009"
     inkscape:window-x="-8"
     inkscape:window-y="-8"
     inkscape:window-maximized="1"
     inkscape:current-layer="svg2" />
  <g
     id="g2"
     transform="matrix(0.78569396,0,0,0.78569396,3.7143785,2.1430431)"
     style="stroke-width:0">
    <path
       d="m 8.0000885,12 c 2.2060005,0 4.0000005,-1.794 4.0000005,-3.9999995 0,-2.206 -1.794,-4 -4.0000005,-4 -2.206,0 -4,1.794 -4,4 0,2.2059995 1.794,3.9999995 4,3.9999995 z m 0,-5.9999995 c 1.103,0 2.0000005,0.897 2.0000005,2 0,1.103 -0.8970005,1.9999995 -2.0000005,1.9999995 -1.103,0 -2,-0.8969995 -2,-1.9999995 0,-1.103 0.897,-2 2,-2 z"
       id="path1"
       style="stroke-width:0" />
    <path
       d="m 7.4200885,19.814 a 0.998,0.998 0 0 0 1.16,0 c 0.304,-0.215 7.4490005,-5.374 7.4200005,-11.8139995 0,-4.411 -3.589,-8 -8.0000005,-8 -4.411,0 -7.999999962551,3.589 -7.999999962551,7.995 C -0.02891146,14.44 7.1160885,19.599 7.4200885,19.814 Z m 0.58,-17.8139995 c 3.3090005,0 6.0000005,2.691 6.0000005,6.005 C 14.021089,12.443 9.6120885,16.428 8.0000885,17.735 c -1.611,-1.308 -6.021,-5.294 -6,-9.7349995 0,-3.309 2.691,-6 6,-6 z"
       id="path2"
       style="stroke-width:0" />
  </g>
</svg>
